PathFileType	4	(X/Y/Z)	C:/Users/beibeiliu/ov580/test_trc/User1\sequence.8_training_dense_right.trc
DataRate	CameraRate	NumFrames	NumMarkers	Units	OrigDataRate	OrigDataStartFrame	OrigNumFrames
120	120	16	19	mm	120	145	289
Frame#	Time	ThumbCMC			ThumbMCP			ThumbIP			ThumbTip			IndexMCP			IndexPIP			IndexTip			MiddleMCP			MiddlePIP			MiddleTip			RingMCP			RingPIP			RingTip			PinkyMCP			PinkyPIP			PinkyTip			BackHand1			BackHand2			BackHand3	
		X0	Y0	Z0	X1	Y1	Z1	X2	Y2	Z2	X3	Y3	Z3	X4	Y4	Z4	X5	Y5	Z5	X6	Y6	Z6	X7	Y7	Z7	X8	Y8	Z8	X9	Y9	Z9	X10	Y10	Z10	X11	Y11	Z11	X12	Y12	Z12	X13	Y13	Z13	X14	Y14	Z14	X15	Y15	Z15	X16	Y16	Z16	X17	Y17	Z17	X18	Y18	Z18	
144	1.2	185.58	126.097	42.661	167.158	143.298	25.0185	160.675	161.799	8.35855	151.684	179.175	6.10957	171.684	116.421	-43.6788	150.416	92.5488	-32.353	157.604	96.8686	0.11636	184.582	96.7912	-46.0707	156.986	77.8493	-30.9884	170.437	83.2893	4.40743	188.104	72.3695	-42.5608	166.552	60.3387	-23.444	184.726	70.0778	7.58319	200.82	53.1629	-33.3979	176.366	52.5322	-12.4865	190.588	65.19	9.37532	231.193	87.7523	-0.806089	236.719	84.9442	40.526	220.474	117.477	21.1165	
145	1.20833	188.617	127.227	40.1683	173.152	144.28	20.2885	166.242	165.161	7.77571	160.82	182.589	3.96118	176.049	114.039	-44.1095	150.882	97.1146	-35.2463	158.761	99.8204	0.781642	186.88	94.4749	-47.6982	155.347	80.5097	-33.627	169.807	83.3161	3.98007	187.787	72.5942	-42.5062	161.958	63.9174	-20.8172	181.86	70.4345	6.83451	198.078	54.007	-31.7776	173.172	53.4543	-15.1284	190.647	62.3218	12.3296	233.088	79.9955	3.34496	235.925	80.1655	39.3829	223.546	111.952	22.3808	
146	1.21667	191.615	128.718	36.4377	176.808	142.58	20.9538	173.664	166.012	3.84444	167.179	181.943	1.78429	175.397	117.288	-45.0367	151.071	102.064	-36.7075	162.422	100.144	1.34146	186.367	93.4723	-47.1016	154.918	81.6028	-32.6673	171.513	86.2018	5.34002	188.293	70.6816	-40.6301	160.933	65.3803	-20.3659	178.017	71.657	6.87107	191.803	51.2569	-32.1408	170.423	55.3655	-12.2094	191.253	67.1519	9.50056	232.264	81.814	1.15637	233.586	76.1607	38.0877	222.335	110.157	24.3713	
147	1.225	193.382	129.707	37.1858	179.878	143.68	20.1854	178.686	164.449	3.64453	175.408	182.774	-1.64938	180.842	113.986	-44.0872	151.87	99.8207	-35.2908	162.182	101.495	1.00836	184.421	88.984	-48.7077	152.391	83.7455	-30.2803	168.782	90.2878	5.4536	185.255	70.9845	-40.4539	158.527	65.8066	-21.9952	175.9	72.1946	7.5339	192.459	53.2325	-29.845	167.597	53.6878	-13.9212	184.765	63.6998	12.8657	230.55	77.1288	3.9061	231.89	75.3272	36.9447	223.556	106.283	24.3083	
148	1.23333	196.002	127.094	37.0126	184.233	146.392	18.2287	185.461	167.597	1.10503	182.11	184.248	-1.54822	178.675	115.047	-45.617	150.736	100.734	-32.4526	160.688	104.537	1.82038	182.262	90.3088	-47.9709	152.132	83.2707	-33.7714	168.633	87.4876	5.09745	180.411	70.7043	-40.8249	154.994	66.1832	-21.1438	173.408	74.6265	7.13571	184.623	50.1067	-31.0886	162.581	53.0678	-10.1321	185.482	63.7817	12.4438	227.427	71.6347	1.58736	231.105	72.0346	38.9728	226.116	103.504	23.2039	
149	1.24167	197.374	128.594	37.0095	187.156	142.452	19.149	190.104	166.693	-0.584363	188.93	181.592	-8.76406	180.639	110.386	-45.6749	151.56	100.992	-35.7832	159.492	100.515	-1.10166	182.285	88.6729	-47.3738	149.872	85.993	-32.4417	166.755	87.6339	5.33922	177.553	69.2428	-39.6365	152.146	68.7957	-21.1385	173.713	73.639	9.33898	178.459	49.016	-29.1502	157.859	55.574	-9.95622	180.762	63.9149	13.2707	225.227	68.7346	2.80429	229.245	66.1606	38.3267	224.144	103.798	20.1872	
150	1.25	199.73	124.628	35.7601	192.561	141.808	13.1072	195.221	159.62	-4.19086	198.703	178.907	-10.26	179.078	110.61	-46.0599	147.597	105.189	-36.9309	160.759	106.82	0.804193	175.987	83.6385	-48.1056	145.931	84.8758	-28.8605	166.299	87.7717	5.33238	173.254	64.3651	-38.8766	146.254	70.3748	-16.1789	166.387	74.9506	8.05733	174.43	47.5465	-27.6818	151.616	55.4582	-12.2498	173.933	62.4906	14.5492	220.926	63.7382	0.127387	225.008	63.5259	35.9094	223.109	96.8503	17.6523	
151	1.25833	201.874	122.399	31.7896	194.66	139.959	13.3086	200.665	153.23	-9.97324	203.401	172.201	-16.3993	177.967	107.705	-46.0724	147.383	100.513	-36.102	161.669	103.168	0.481683	174.943	79.0492	-46.9059	143.091	84.9818	-30.5578	161.281	90.104	3.93555	163.292	59.0616	-38.758	141.888	68.5984	-14.8572	162.775	71.2417	8.00942	167.288	39.6414	-26.5248	146.679	55.7652	-8.88563	170.879	59.7728	14.0996	215.871	58.5113	1.66539	220.819	55.0694	40.4802	221.182	91.9544	17.5918	
152	1.26667	200.612	115.884	31.7594	195.824	135.208	12.3706	204.658	153.618	-11.9906	208.411	167.985	-17.9078	176.071	99.5156	-46.6146	144.775	100.058	-34.6791	159.784	101.374	-1.4838	166.257	75.6053	-47.8911	140.956	85.9019	-28.2773	161.801	84.3671	5.06938	162.647	56.3415	-36.5573	139.172	69.4522	-18.8903	159.807	72.722	8.06507	162.898	40.2156	-24.093	141.632	53.7619	-5.5062	163.884	59.9919	13.6812	211.727	48.299	3.5811	215.734	56.2014	41.1994	218.915	88.2733	19.1773	
153	1.275	201.976	114.046	33.0828	198.602	131.593	9.82869	207.171	146.77	-14.5214	210.057	162.995	-19.8377	172.214	99.701	-47.9076	142.325	99.2358	-34.4556	158.029	98.9028	-1.69482	168.24	73.4823	-46.3102	137.614	83.0368	-25.6193	162.008	87.3727	4.85841	155.33	56.2559	-36.8919	135.347	68.7291	-14.4946	157.37	69.0168	10.3571	155.671	37.3777	-23.0601	138.011	54.4408	-6.13542	163.495	60.0704	12.8582	205.809	44.8027	3.42773	213.668	48.6997	37.5384	216.793	80.9953	19.0355	
154	1.28333	200.389	108.716	31.0782	198.971	126.195	7.3217	205.549	139.359	-15.6285	212.629	155.613	-24.6566	166.995	92.1117	-48.4651	139.703	98.6464	-33.0074	158.419	97.261	-2.25726	160.912	67.7675	-45.7956	134.087	80.1745	-28.4153	159.266	84.7136	4.5406	152.453	49.8	-34.3727	129.472	63.5882	-14.4628	152.919	70.313	10.2914	149.73	32.5367	-19.5438	131.732	51.7886	-7.30428	153.72	59.5116	16.5717	199.507	42.8799	6.52936	206.934	42.8493	41.1844	215.756	77.1473	16.562	
155	1.29167	198.955	103.348	31.1092	199.657	120.434	6.0871	208.779	132.286	-17.9653	213.63	143.795	-29.6756	165.202	85.9231	-48.7374	138.105	93.2674	-31.7687	153.678	96.7532	-4.07233	155.348	66.1143	-46.6017	129.381	78.4454	-24.7375	156.592	81.4423	4.71472	145.959	44.4181	-31.1492	124.747	64.4855	-11.9863	151.143	66.7768	11.3103	143.652	29.1942	-17.7048	126.408	51.9928	-3.33635	152.416	57.383	17.0761	192.983	33.3704	4.90466	200.452	38.6726	42.0506	209.885	69.3479	18.0951	
156	1.3	200.543	99.5444	28.0007	199.127	113.645	6.64444	208.537	122.786	-18.0251	217.312	135.215	-28.882	163.703	83.653	-48.9919	135.99	93.6799	-32.1651	154.379	94.0776	-4.62575	150.444	59.7623	-44.8506	128.189	79.7935	-30.7199	153.265	76.8934	4.66099	138.704	47.617	-33.8544	123.627	68.2699	-11.6958	148.62	66.426	10.0117	135.565	28.5447	-15.9664	123.869	53.0549	-5.86237	149.22	55.1471	18.2206	186.321	30.3513	5.24353	195.627	36.4993	42.3458	208.328	61.2609	16.3736	
157	1.30833	201.063	96.6049	28.8087	204.534	106.986	0.0799562	214.447	114.39	-23.5366	222.668	124.671	-35.7529	164.067	77.4458	-47.8807	136.626	94.4446	-35.624	157.356	93.1977	-4.73994	146.768	60.261	-46.4697	125.746	78.179	-25.951	150.676	75.2745	4.50862	134.003	42.3777	-30.6832	119.157	66.9273	-14.5843	142.639	63.0033	11.6886	129.359	27.7732	-15.9642	119.477	53.7098	-5.99414	142.07	54.7896	16.7152	182.443	26.5975	10.8594	193.459	32.4269	43.5272	205.28	59.5757	15.5677	
158	1.31667	199.41	89.582	23.1843	204.398	103.426	2.7832	213.061	107.293	-24.0373	226.223	118.8	-36.5474	158.971	74.472	-50.0672	135.734	92.1554	-37.8225	154.855	88.7565	-4.54605	144.545	54.1472	-45.1358	122.68	77.2205	-28.9632	146.448	73.5422	3.7636	130.91	42.498	-31.9027	117.216	66.7076	-15.6106	144.691	63.9625	9.41037	123.485	26.5508	-15.9138	116.789	54.7609	-5.18805	137.126	51.8672	18.1913	175.269	22.1111	6.60904	185.653	30.2218	41.2137	201.334	54.8448	14.3219	
159	1.325	198.566	86.6131	26.9493	200.174	94.5536	0.41775	210.438	100.05	-21.5792	224.868	109.526	-39.2176	157.09	72.5141	-50.2303	133.469	87.4731	-38.526	154.313	88.8993	-6.51954	142.897	51.214	-44.6735	120.623	76.6827	-25.2587	142.692	73.2636	2.25261	128.94	41.6403	-31.1718	114.365	67.5211	-13.8197	137.076	61.7605	9.96685	122.081	26.4181	-14.9686	110.372	53.7753	-4.64425	136.818	50.8501	13.3783	168.665	18.582	12.7269	177.052	23.1196	43.6813	194.957	44.5554	15.2205	
